#!OML:ASF F:\VICON\USERDATA\INSTALL\rory3\rory3.ASF
:FULLY-SPECIFIED
:DEGREES
271
root 11.8442 17.8185 6.20667 -176.636 -37.3568 176.31
lowerback 13.4759 2.31927 0.816712
upperback 1.27359 3.09021 0.0621057
thorax -6.16613 1.44436 -0.961441
lowerneck -15.0642 0.882692 -11.2438
upperneck 38.5138 0.0907986 5.67244
head 16.2585 -1.71386 4.27474
rclavicle 3.67752e-014 -1.27222e-014
rhumerus -33.9922 -21.4792 -70.6035
rradius 34.5106
rwrist 2.02695
rhand -17.7322 6.82653
rfingers 7.12502
rthumb 8.52878 -22.9812
lclavicle 3.67752e-014 -1.27222e-014
lhumerus -33.0014 9.30798 81.5463
lradius 37.5579
lwrist -4.95525
lhand -21.0876 20.0024
lfingers 7.12502
lthumb 5.28977 49.9164
rfemur -7.49474 -1.2282 16.869
rtibia 31.2022
rfoot -22.7274 5.8295
rtoes 3.56546
lfemur -15.1156 -6.54418 -18.7344
ltibia 32.1398
lfoot -18.2165 -1.39248
ltoes -8.55342
272
root 11.7995 17.8273 6.23827 -176.674 -36.9522 176.3
lowerback 13.4062 2.27833 0.719761
upperback 1.31154 3.02101 0.0942109
thorax -6.09537 1.41356 -0.856407
lowerneck -15.0999 0.863453 -11.4258
upperneck 38.5177 0.0757913 5.76435
head 16.2706 -1.73932 4.34539
rclavicle 2.49475e-014 -2.14687e-014
rhumerus -33.9673 -21.0811 -70.771
rradius 34.6818
rwrist 1.1802
rhand -18.8198 7.61855
rfingers 7.12502
rthumb 7.47913 -22.2292
lclavicle 2.49475e-014 -2.14687e-014
lhumerus -33.0166 9.47504 81.5113
lradius 37.4134
lwrist -5.08602
lhand -20.8956 20.1622
lfingers 7.12502
lthumb 5.47512 50.0715
rfemur -7.37318 -0.962634 16.6226
rtibia 30.934
rfoot -22.6399 5.95504
rtoes 3.27103
lfemur -15.031 -6.87206 -18.1458
ltibia 31.8891
lfoot -17.9282 -1.06613
ltoes -8.69978
273
root 11.7531 17.8336 6.27226 -176.874 -36.5055 176.47
lowerback 13.4841 2.23558 0.81208
upperback 1.31186 2.97857 0.11867
thorax -6.13549 1.38949 -0.878061
lowerneck -15.1775 0.842508 -11.6035
upperneck 38.5918 0.0243687 5.92395
head 16.3334 -1.77673 4.44295
rclavicle 8.55768e-014 -7.15625e-015
rhumerus -33.9891 -20.5854 -71.0314
rradius 34.6212
rwrist 0.878685
rhand -20.1026 8.61023
rfingers 7.12502
rthumb 6.24077 -21.2778
lclavicle 8.55768e-014 -7.15625e-015
lhumerus -33.0164 9.54695 81.4049
lradius 37.1819
lwrist -5.21487
lhand -20.8586 20.342
lfingers 7.12502
lthumb 5.51085 50.2504
rfemur -7.16532 -0.639864 16.5416
rtibia 30.6171
rfoot -22.5478 5.87379
rtoes 2.05828
lfemur -14.8964 -7.18202 -17.3721
ltibia 31.6578
lfoot -17.6062 -1.01501
ltoes -7.77857
274
root 11.706 17.8414 6.3052 -177.197 -36.0392 176.87
lowerback 13.5468 2.20436 1.03977
upperback 1.30477 2.97721 0.223063
thorax -6.17173 1.38304 -0.8987
lowerneck -15.2251 0.799772 -11.8043
upperneck 38.6406 -0.040703 6.0478
head 16.3789 -1.82656 4.52493
rclavicle -6.87795e-014 -3.97569e-015
rhumerus -34.1301 -20.2283 -71.1957
rradius 34.868
rwrist 0.687301
rhand -20.4628 8.92937
rfingers 7.12502
rthumb 5.89303 -20.9687
lclavicle -6.87795e-014 -3.97569e-015
lhumerus -33.0196 9.78744 81.3273
lradius 36.9456
lwrist -5.35616
lhand -21.1099 20.7993
lfingers 7.12502
lthumb 5.26826 50.7138
rfemur -6.97019 -0.306246 16.6594
rtibia 30.2753
rfoot -22.4285 6.07885
rtoes 1.79957
lfemur -14.7715 -7.32757 -16.3806
ltibia 31.3869
lfoot -17.134 -0.835933
ltoes -7.22917
275
root 11.6521 17.8472 6.33508 -177.403 -35.5865 177.03
lowerback 13.5477 2.16095 1.11649
upperback 1.32286 2.9307 0.247978
thorax -6.15133 1.35813 -0.906533
lowerneck -15.2983 0.8095 -11.8407
upperneck 38.7497 -0.0577203 6.09733
head 16.4558 -1.84805 4.55469
rclavicle 8.31914e-014 -1.27222e-014
rhumerus -34.3122 -19.9769 -71.3428
rradius 35.1861
rwrist 0.673206
rhand -20.2178 9.20328
rfingers 7.12502
rthumb 6.12951 -20.688
lclavicle 8.31914e-014 -1.27222e-014
lhumerus -33.0869 10.0785 81.1561
lradius 36.8079
lwrist -5.32344
lhand -21.0748 21.2002
lfingers 7.12502
lthumb 5.30216 51.1139
rfemur -6.70423 -0.140797 16.5165
rtibia 29.9065
rfoot -22.376 6.38458
rtoes 1.31319
lfemur -14.5819 -7.45113 -15.6209
ltibia 31.0766
lfoot -16.7148 -0.598524
ltoes -7.94273
276
root 11.596 17.8541 6.36598 -177.394 -35.1723 176.926
lowerback 13.594 2.11303 1.23884
upperback 1.26211 2.8762 0.0450415
thorax -6.22572 1.32591 -1.18247
lowerneck -15.3403 0.819988 -11.8681
upperneck 38.8628 -0.151529 6.31668
head 16.5346 -1.87823 4.64681
rclavicle -1.41137e-014 -6.36111e-015
rhumerus -34.556 -19.8335 -71.6284
rradius 35.3936
rwrist 0.816824
rhand -20.1212 9.33784
rfingers 7.12502
rthumb 6.22276 -20.5508
lclavicle -1.41137e-014 -6.36111e-015
lhumerus -33.2548 10.0842 80.7576
lradius 36.7428
lwrist -5.12796
lhand -20.7452 21.0751
lfingers 7.12502
lthumb 5.62035 50.9806
rfemur -6.48589 0.0211836 16.1312
rtibia 29.566
rfoot -22.3844 6.60538
rtoes 0.694587
lfemur -14.409 -7.65087 -15.0834
ltibia 30.6875
lfoot -16.4793 -0.561234
ltoes -8.34112
277
root 11.5434 17.8609 6.39831 -177.491 -34.7316 177.003
lowerback 13.873 2.06583 1.698
upperback 1.06278 2.87684 -0.255298
thorax -6.55402 1.30663 -1.77521
lowerneck -15.1373 0.799527 -12.0083
upperneck 38.8405 -0.376866 6.7601
head 16.4963 -1.94422 4.82813
rclavicle -3.47873e-015 -4.37326e-015
rhumerus -35.0604 -19.8198 -71.9283
rradius 35.569
rwrist 1.07362
rhand -20.1024 9.31011
rfingers 7.12502
rthumb 6.24095 -20.578
lclavicle -3.47873e-015 -4.37326e-015
lhumerus -33.5705 9.87541 80.2182
lradius 36.6652
lwrist -5.10597
lhand -20.6297 20.5867
lfingers 7.12502
lthumb 5.73183 50.4892
rfemur -6.33475 0.318094 15.9298
rtibia 29.2844
rfoot -22.3225 6.91006
rtoes 0.930037
lfemur -14.1914 -7.89204 -14.3704
ltibia 30.2119
lfoot -16.1131 -0.595948
ltoes -8.46173
